<svg width="360" height="69" viewBox="0 0 360 69" fill="none" xmlns="http://www.w3.org/2000/svg">
<path d="M36.8757 21.0668C36.4186 20.3558 36.3615 19.5052 36.7233 18.8006C37.0978 18.0833 37.8342 17.6326 38.6975 17.5881L43.2235 17.3406C41.7191 16.5915 40.2337 15.6711 38.9832 14.5411C35.9171 11.7798 33.2383 6.61263 32.1846 2.46112C31.4038 -0.598562 29.0932 -1.06196 28.3441 2.53729L22.7897 31.1091C22.5675 32.2581 23.5388 33.1214 24.6877 32.7469L40.9573 27.4591L36.8884 21.0604L36.8757 21.0668Z" fill="#2E3A42"/>
<path d="M69.0863 17.2409L39.721 18.8279C38.5212 18.8914 37.9309 20.0467 38.5593 21.0433L46.0054 32.7425L53.0896 26.0201C53.4705 25.6519 54.8163 24.4458 56.0731 24.4458C56.5429 24.4458 57.6664 24.6299 57.9585 26.3184C58.1616 27.4737 57.768 28.7179 57.4443 29.7145C57.4189 29.8034 57.3871 29.8986 57.3618 29.9811C57.2919 30.2033 57.2284 30.4191 57.1777 30.6159C56.8031 32.0696 56.5302 33.4979 56.3651 34.8563C56.016 37.6367 56.1112 40.106 56.6508 42.2008C56.8285 42.88 57.1078 43.6608 57.4824 44.5051C57.5522 43.464 57.4697 42.4103 57.4697 42.1183C57.457 40.9947 57.5014 39.4331 57.7236 37.7002C58.0156 35.3007 58.6504 32.6282 59.9009 30.3493C61.8688 26.7374 66.2932 22.9159 70.102 20.9037C72.9077 19.4183 72.8188 17.0949 69.0926 17.2409" fill="#00937B"/>
<path d="M62.829 54.9935C59.6233 52.1242 56.2653 47.3633 55.2433 43.3832C54.5895 40.8758 54.6339 38.1208 54.9323 35.734C55.1417 34.001 55.4782 32.4712 55.7638 31.3793C56.0812 30.1796 56.7541 28.6942 56.5319 27.4373C56.1193 25.1267 53.8849 26.7835 53.0533 27.596L37.6406 42.2215L50.6601 50.3278C51.5298 50.8546 52.9771 51.9401 52.9708 53.2414C52.9708 53.7112 52.774 54.3904 51.8662 54.9427C51.6123 55.095 51.3267 55.1966 51.022 55.2728L60.9628 58.3007C64.543 59.3418 65.1841 57.0946 62.8354 54.9871" fill="#E22766"/>
<path d="M49.4485 51.0478L31.6173 39.9453L32.0616 45.9568C32.1061 46.6423 31.8966 47.2708 31.4586 47.7278C31.046 48.1722 30.4683 48.4197 29.8462 48.4197C29.5098 48.4197 29.1606 48.3436 28.8179 48.1912L22.3748 45.2331L21.2258 66.0605C21.0734 69.7296 23.4285 69.8502 24.9393 67.0571C26.9706 63.2865 30.8365 58.9064 34.4865 56.964C36.7908 55.7325 39.495 55.1041 41.9135 54.8121C44.1353 54.5391 46.2111 54.628 48.4265 54.6343C49.1628 54.6343 50.0833 54.5962 50.6609 54.2471C52.4383 53.1806 50.3943 51.6254 49.4421 51.0541" fill="#17498F"/>
<path d="M29.8803 32.5024L24.1482 34.3687C23.8943 34.4512 23.6277 34.4957 23.3547 34.4957C22.6882 34.4957 22.0597 34.21 21.6408 33.7085C21.2028 33.1817 21.0377 32.4961 21.1774 31.7788L23.6657 18.9688C23.1008 19.9527 22.4787 20.9176 21.8312 21.8316C20.4347 23.7995 18.6001 25.8689 16.4228 27.3035C12.9696 29.5761 7.25646 30.8964 2.93355 30.9028C-0.27213 30.9155 -1.26875 33.0166 2.07659 34.6099L28.7567 46.8423C29.8422 47.3438 30.915 46.6011 30.8325 45.4331L29.874 32.5024H29.8803Z" fill="#FFE000"/>
<path fill-rule="evenodd" clip-rule="evenodd" d="M149.672 25.3359H151.972V33.0359H166.982V25.3359H170.332C172.042 25.3359 172.042 26.9259 172.042 26.9259V45.6359H166.972V37.0859H151.962V45.6359H146.902V27.5259C146.902 27.5259 146.902 25.3359 149.662 25.3359" fill="#2E3A42"/>
<path fill-rule="evenodd" clip-rule="evenodd" d="M207.022 25.3359H222.322V27.5659C222.322 27.5659 222.372 29.3359 219.472 29.3359H208.232V33.1159H220.752V37.1059H208.232V41.6859H221.552C225.092 41.6859 225.092 43.8359 225.092 43.8359V45.6359H203.172V28.0659C203.172 28.0659 203.142 25.3359 207.012 25.3359" fill="#2E3A42"/>
<path fill-rule="evenodd" clip-rule="evenodd" d="M102.991 26.295C102.991 25.515 102.781 25.205 102.621 25.095C102.401 24.935 101.921 24.795 101.061 24.795H87.3512V30.275H101.051C102.491 30.275 102.981 29.745 102.981 28.725V26.295H102.991ZM103.181 36.885C103.181 35.785 102.961 35.235 102.721 35.005C102.521 34.785 102.031 34.585 101.051 34.585H87.3512V41.135H101.051C102.031 41.135 102.521 40.925 102.721 40.715C102.951 40.485 103.181 39.945 103.181 38.895V36.885ZM84.8512 20.375H102.581C104.471 20.375 105.981 20.755 106.991 21.655C108.001 22.525 108.431 23.915 108.431 25.635V28.435C108.431 30.425 107.561 31.795 105.951 32.545C107.681 33.375 108.581 34.965 108.581 37.255V40.335C108.581 43.975 105.801 45.635 101.101 45.635H82.0012V22.995C82.0012 22.995 81.8512 20.385 84.8512 20.385V20.375Z" fill="#2E3A42"/>
<path fill-rule="evenodd" clip-rule="evenodd" d="M229.671 25.3359H231.581V33.0659L242.571 25.9759C242.571 25.9759 243.491 25.3359 244.801 25.3359H248.321C251.221 25.3359 248.531 26.8759 248.531 26.8759L235.191 35.1659L252.741 45.6359H244.281L231.571 37.5359V45.6359H226.531V28.4559C226.531 28.4559 226.501 25.3359 229.661 25.3359" fill="#2E3A42"/>
<path fill-rule="evenodd" clip-rule="evenodd" d="M178.41 25.3359H180.32V33.0659L191.31 25.9759C191.31 25.9759 192.23 25.3359 193.54 25.3359H197.06C199.96 25.3359 197.27 26.8759 197.27 26.8759L183.93 35.1659L201.48 45.6359H193.02L180.31 37.5359V45.6359H175.27V28.4559C175.27 28.4559 175.24 25.3359 178.4 25.3359" fill="#2E3A42"/>
<path fill-rule="evenodd" clip-rule="evenodd" d="M142.429 34.2659C141.569 33.4659 140.049 33.1459 138.109 33.1459H125.659V29.3359H138.869C138.869 29.3359 139.489 25.3359 135.519 25.3359H126.489C124.539 25.3359 123.009 25.6559 122.119 26.4459C121.259 27.2559 120.929 28.6759 120.929 30.4759V32.2859C120.929 34.0559 121.259 35.4559 122.119 36.2659C123.009 37.0559 124.549 37.3759 126.489 37.3759H138.989V41.5959H124.839V38.6159L120.109 39.5259V40.5359C120.109 42.3159 120.439 43.7159 121.299 44.5159C122.189 45.3159 123.739 45.6259 125.709 45.6259H138.099C140.029 45.6259 141.549 45.3259 142.409 44.5159C143.309 43.7159 143.659 42.3159 143.659 40.5359V38.2359C143.659 36.4659 143.309 35.0759 142.419 34.2559" fill="#2E3A42"/>
<path fill-rule="evenodd" clip-rule="evenodd" d="M115.842 25.3395C115.842 25.3395 111.852 25.0995 111.852 28.5795V45.6395H116.872V25.3395H115.852H115.842Z" fill="#2E3A42"/>
<path fill-rule="evenodd" clip-rule="evenodd" d="M256.929 29.0981C260.509 29.0981 273.799 29.1281 273.799 29.1281C274.759 29.1281 275.249 28.9781 275.449 28.8081C275.669 28.6281 275.869 28.2081 275.869 27.3681V24.2981C275.869 23.4481 275.659 23.0581 275.459 22.9081C275.209 22.6981 274.699 22.5381 273.799 22.5381H248.609C248.609 22.5381 247.989 18.5781 251.959 18.5781H275.419C277.299 18.5781 278.809 18.9281 279.799 19.7481C280.809 20.5481 281.239 21.8181 281.239 23.3981V28.3181C281.239 29.9081 280.799 31.1881 279.789 32.0181C278.799 32.7981 277.289 33.1481 275.409 33.1481H258.949V45.6581H253.619V32.1281C253.619 32.1281 253.329 29.1181 256.909 29.1181" fill="#E22766"/>
<path fill-rule="evenodd" clip-rule="evenodd" d="M315.18 34.3681H322.17C323.14 34.3681 323.45 34.1381 323.54 33.9781C323.63 33.8281 323.72 33.5081 323.72 32.9481V30.6381C323.72 29.6281 323.26 29.2281 322.18 29.2281H310.47V45.6281H305.44V28.4981C305.44 28.4981 305.22 25.3281 308.66 25.3281H323.86C327.02 25.3281 328.72 26.8081 328.72 29.5981V33.8981C328.72 36.6581 327.02 38.1081 323.86 38.1081H322.72L331.66 45.6281H324.76L314.34 35.8481C314.34 35.8481 312.54 34.3681 315.2 34.3581" fill="#E22766"/>
<path fill-rule="evenodd" clip-rule="evenodd" d="M336.2 25.3359H338.11V33.0659L349.11 25.9759C349.11 25.9759 350.03 25.3359 351.34 25.3359H354.86C357.76 25.3359 355.07 26.8759 355.07 26.8759L341.73 35.1659L359.28 45.6359H350.82L338.11 37.5359V45.6359H333.07V28.4559C333.07 28.4559 333.04 25.3359 336.2 25.3359Z" fill="#E22766"/>
<path d="M291.32 25.3356C290.81 24.6156 289.96 24.2656 289.19 24.2656C288.3 24.2656 287.53 24.6856 287.14 25.3056C287.08 25.3856 287.02 25.4756 286.97 25.5756L274.75 45.6256H279.97L282.58 41.1456H295.81L298.44 45.6256H304L291.33 25.3256L291.32 25.3356ZM292.03 37.3056H284.83L289.16 29.8656L293.54 37.3056H292.02H292.03Z" fill="#E22766"/>
</svg>
